<svg width="16" height="16" viewBox="0 0 16 16" fill="none" xmlns="http://www.w3.org/2000/svg">
<path d="M8 0C3.6028 0 0 3.6028 0 8C0 12.3972 3.6028 16 8 16C12.3972 16 16 12.3972 16 8C16 3.6028 12.3972 0 8 0ZM7.38461 1.49159V7.38461H4.98437C5.06155 5.69482 5.38862 4.14733 5.92909 3.05889C6.36298 2.18508 6.87281 1.73926 7.38461 1.49159ZM8.61538 1.49159C9.12719 1.73926 9.63702 2.18508 10.0709 3.05889C10.6114 4.14733 10.9385 5.69482 11.0156 7.38461H8.61538V1.49159ZM5.21154 1.84135C5.07507 2.05399 4.94424 2.27454 4.82692 2.51082C4.18055 3.81254 3.82905 5.52633 3.75361 7.38461H1.26202C1.48694 4.91696 3.04789 2.82759 5.21154 1.84135ZM10.7885 1.84135C12.9521 2.82759 14.5131 4.91696 14.738 7.38461H12.2464C12.1709 5.52633 11.8195 3.81254 11.1731 2.51082C11.0558 2.27454 10.9249 2.05399 10.7885 1.84135ZM1.26202 8.61538H3.75361C3.82905 10.4737 4.18055 12.1875 4.82692 13.4892C4.94424 13.7255 5.07507 13.946 5.21154 14.1587C3.04789 13.1724 1.48694 11.083 1.26202 8.61538ZM4.98437 8.61538H7.38461V14.5084C6.87281 14.2607 6.36298 13.8149 5.92909 12.9411C5.38862 11.8527 5.06155 10.3052 4.98437 8.61538ZM8.61538 8.61538H11.0156C10.9385 10.3052 10.6114 11.8527 10.0709 12.9411C9.63702 13.8149 9.12719 14.2607 8.61538 14.5084V8.61538ZM12.2464 8.61538H14.738C14.5131 11.083 12.9521 13.1724 10.7885 14.1587C10.9249 13.946 11.0558 13.7255 11.1731 13.4892C11.8195 12.1875 12.1709 10.4737 12.2464 8.61538Z" fill="black"/>
</svg>
