<svg width="25" height="24" viewBox="0 0 25 24" fill="none" xmlns="http://www.w3.org/2000/svg">
<path d="M7.79993 0C3.9811 0 0.875977 3.10513 0.875977 6.92395V16.511C0.875977 20.3298 3.9811 23.4349 7.79993 23.4349H17.3869C21.2058 23.4349 24.3109 20.3298 24.3109 16.511V6.92395C24.3109 3.10513 21.2058 0 17.3869 0H7.79993ZM18.9848 4.26089C19.5706 4.26089 20.05 4.74024 20.05 5.32612C20.05 5.91199 19.5706 6.39134 18.9848 6.39134C18.3989 6.39134 17.9195 5.91199 17.9195 5.32612C17.9195 4.74024 18.3989 4.26089 18.9848 4.26089ZM12.5934 5.85873C15.8264 5.85873 18.4522 8.4845 18.4522 11.7175C18.4522 14.9504 15.8264 17.5762 12.5934 17.5762C9.36048 17.5762 6.7347 14.9504 6.7347 11.7175C6.7347 8.4845 9.36048 5.85873 12.5934 5.85873ZM12.5934 6.92395C9.95168 6.92395 7.79993 9.0757 7.79993 11.7175C7.79993 14.3592 9.95168 16.511 12.5934 16.511C15.2352 16.511 17.3869 14.3592 17.3869 11.7175C17.3869 9.0757 15.2352 6.92395 12.5934 6.92395Z" fill="white"/>
</svg>
