<svg width="26" height="24" viewBox="0 0 26 24" fill="none" xmlns="http://www.w3.org/2000/svg">
<path d="M25.3891 0.322094C24.9498 -0.0504441 24.2598 -0.103747 23.5464 0.182685H23.5452C22.7948 0.483761 2.30525 9.27238 1.47114 9.63145C1.31943 9.68416 -0.00554058 10.1785 0.13094 11.2798C0.252776 12.2726 1.31767 12.6838 1.44771 12.7312L6.6568 14.5149C7.00239 15.6653 8.2764 19.9096 8.55815 20.8164C8.73388 21.3816 9.02031 22.1244 9.5223 22.2772C9.96278 22.4471 10.4009 22.2919 10.6844 22.0693L13.8692 19.1154L19.0103 23.1248L19.1327 23.198C19.4818 23.3527 19.8163 23.43 20.1355 23.43C20.3821 23.43 20.6188 23.3837 20.8449 23.2912C21.6151 22.9749 21.9232 22.2409 21.9555 22.1577L25.7957 2.19709C26.03 1.13102 25.7043 0.588611 25.3891 0.322094ZM11.2508 15.2283L9.4936 19.9143L7.73634 14.0568L21.2086 4.09902L11.2508 15.2283Z" fill="white"/>
</svg>
