<svg width="39" height="24" viewBox="0 0 39 24" fill="none" xmlns="http://www.w3.org/2000/svg">
<path d="M38.2827 21.0072C36.7235 18.2011 32.7071 14.8294 31.049 13.3621C30.5952 12.9604 30.5466 12.2654 30.9596 11.8211C34.124 8.42074 36.655 4.51362 37.5261 2.15269C37.9105 1.10975 37.1149 0.00780888 35.9938 0.00780888H32.7375C31.6641 0.00780888 31.036 0.393055 30.7366 1.0065C28.1067 6.3956 25.8508 8.7279 24.2716 10.091C23.3874 10.8546 22.0087 10.222 22.0087 9.06022C22.0087 6.82163 22.0087 3.92794 22.0087 1.8759C22.0087 0.880685 21.1948 0.0754872 20.1909 0.0754872L14.2422 0.00780888C13.4934 0.00780888 13.0656 0.855523 13.5151 1.44988L14.4973 2.85984C14.8669 3.34834 15.0665 3.9427 15.0665 4.55267L15.0613 10.9023C15.0613 12.0068 13.7225 12.5465 12.9277 11.7726C10.2388 9.15392 7.90559 3.80647 7.06569 1.24945C6.82274 0.509322 6.12947 0.00954422 5.34336 0.00780888L2.13558 0C0.932126 0 0.0523075 1.14099 0.379419 2.28978C3.31041 12.5778 9.32423 22.3651 20.0417 23.4262C21.0977 23.5304 22.0087 22.68 22.0087 21.6276V18.2905C22.0087 17.3335 22.7592 16.5109 23.7241 16.4866C23.7579 16.4857 23.7918 16.4857 23.8256 16.4857C26.6603 16.4857 29.8351 20.6115 30.9457 22.5412C31.265 23.0965 31.862 23.4349 32.5075 23.4349H36.8224C38.0814 23.4349 38.8892 22.0996 38.2827 21.0072Z" fill="white"/>
</svg>
